# xmcd CD database file
#
# Track frame offsets:
#	150
#	33458
#	90355
#	161614
#	205465
#	252279
#	287509
#	304919
#
# Disc length: 4484 seconds
#
# Revision: 0
# Processed by: cddbd v1.5.2PL0 Copyright (c) Steve Scherf et al.
# Submitted via: CDex 1.70beta2
#
DISCID=67118208
DTITLE=St Germain - Boulevard
DYEAR=1995
DGENRE=Jazz
TTITLE0=Deep In It
TTITLE1=Thank U Mum (4 Everything You Did)
TTITLE2=Street Scene (4 Shazz)
TTITLE3=Easy To Remember
TTITLE4=Sentimental Mood
TTITLE5=What's New?
TTITLE6=Dub Experience II
TTITLE7=Forget It
EXTD=YEAR: 1995
EXTT0=
EXTT1=
EXTT2=
EXTT3=
EXTT4=
EXTT5=
EXTT6=
EXTT7=
PLAYORDER=
